<mxfile host="app.diagrams.net" agent="Mozilla/5.0 (Macintosh; Intel Mac OS X 10_15_7) AppleWebKit/537.36 (KHTML, like Gecko) Chrome/134.0.0.0 Safari/537.36" version="26.0.9">
  <diagram name="Page-1" id="aGPqsEmb9DAWg0fPe5Yq">
    <mxGraphModel dx="3475" dy="1319" grid="0" gridSize="10" guides="1" tooltips="1" connect="1" arrows="1" fold="1" page="1" pageScale="1" pageWidth="1100" pageHeight="850" math="0" shadow="0">
      <root>
        <mxCell id="0" />
        <mxCell id="1" parent="0" />
        <mxCell id="0TzuPKPh_3oKhMu8tfwf-6" style="edgeStyle=orthogonalEdgeStyle;rounded=0;orthogonalLoop=1;jettySize=auto;html=1;exitX=1;exitY=0.5;exitDx=0;exitDy=0;sketch=1;curveFitting=1;jiggle=2;startArrow=classic;startFill=1;" edge="1" parent="1" source="0TzuPKPh_3oKhMu8tfwf-3" target="0TzuPKPh_3oKhMu8tfwf-4">
          <mxGeometry relative="1" as="geometry" />
        </mxCell>
        <mxCell id="0TzuPKPh_3oKhMu8tfwf-13" style="edgeStyle=orthogonalEdgeStyle;rounded=0;orthogonalLoop=1;jettySize=auto;html=1;exitX=0;exitY=0.5;exitDx=0;exitDy=0;entryX=1;entryY=0.5;entryDx=0;entryDy=0;startArrow=classic;startFill=1;sketch=1;curveFitting=1;jiggle=2;" edge="1" parent="1" source="0TzuPKPh_3oKhMu8tfwf-3" target="0TzuPKPh_3oKhMu8tfwf-12">
          <mxGeometry relative="1" as="geometry" />
        </mxCell>
        <mxCell id="0TzuPKPh_3oKhMu8tfwf-19" style="edgeStyle=orthogonalEdgeStyle;rounded=1;orthogonalLoop=1;jettySize=auto;html=1;exitX=1;exitY=0.75;exitDx=0;exitDy=0;sketch=1;curveFitting=1;jiggle=2;curved=0;" edge="1" parent="1" source="0TzuPKPh_3oKhMu8tfwf-3" target="0TzuPKPh_3oKhMu8tfwf-16">
          <mxGeometry relative="1" as="geometry">
            <Array as="points">
              <mxPoint x="616" y="383" />
              <mxPoint x="616" y="524" />
            </Array>
          </mxGeometry>
        </mxCell>
        <mxCell id="0TzuPKPh_3oKhMu8tfwf-3" value="&lt;h3&gt;&lt;span style=&quot;font-weight: normal;&quot;&gt;&lt;font face=&quot;Comic Sans MS&quot;&gt;Backend&lt;br&gt;&lt;/font&gt;&lt;font face=&quot;Comic Sans MS&quot;&gt;(FastAPI)&lt;/font&gt;&lt;/span&gt;&lt;/h3&gt;" style="rounded=0;whiteSpace=wrap;html=1;fillColor=#ffe6cc;strokeColor=#d79b00;shadow=0;sketch=1;curveFitting=1;jiggle=2;" vertex="1" parent="1">
          <mxGeometry x="406" y="315" width="180" height="90" as="geometry" />
        </mxCell>
        <mxCell id="0TzuPKPh_3oKhMu8tfwf-4" value="&lt;h3&gt;&lt;font style=&quot;font-weight: normal;&quot; face=&quot;Comic Sans MS&quot;&gt;Frontend&lt;br&gt;(React)&lt;/font&gt;&lt;/h3&gt;" style="rounded=0;whiteSpace=wrap;html=1;sketch=1;curveFitting=1;jiggle=2;fillColor=#d5e8d4;strokeColor=#82b366;" vertex="1" parent="1">
          <mxGeometry x="646" y="315" width="180" height="90" as="geometry" />
        </mxCell>
        <mxCell id="0TzuPKPh_3oKhMu8tfwf-5" value="&lt;h3&gt;&lt;span style=&quot;font-weight: normal;&quot;&gt;&lt;font face=&quot;Comic Sans MS&quot;&gt;Database&lt;br&gt;(PostgreSQL)&lt;/font&gt;&lt;/span&gt;&lt;/h3&gt;" style="shape=cylinder3;whiteSpace=wrap;html=1;boundedLbl=1;backgroundOutline=1;size=15;sketch=1;curveFitting=1;jiggle=2;fillColor=#dae8fc;strokeColor=#6c8ebf;" vertex="1" parent="1">
          <mxGeometry x="447.25" y="485" width="97.5" height="130" as="geometry" />
        </mxCell>
        <mxCell id="0TzuPKPh_3oKhMu8tfwf-7" style="edgeStyle=orthogonalEdgeStyle;rounded=0;orthogonalLoop=1;jettySize=auto;html=1;exitX=0.5;exitY=1;exitDx=0;exitDy=0;entryX=0.5;entryY=0;entryDx=0;entryDy=0;entryPerimeter=0;startArrow=classic;startFill=1;sketch=1;curveFitting=1;jiggle=2;" edge="1" parent="1" source="0TzuPKPh_3oKhMu8tfwf-3" target="0TzuPKPh_3oKhMu8tfwf-5">
          <mxGeometry relative="1" as="geometry" />
        </mxCell>
        <mxCell id="0TzuPKPh_3oKhMu8tfwf-12" value="&lt;h2&gt;&lt;font face=&quot;Comic Sans MS&quot;&gt;LLM Providers&lt;/font&gt;&lt;/h2&gt;" style="swimlane;whiteSpace=wrap;html=1;collapsible=0;sketch=1;curveFitting=1;jiggle=2;fillColor=#f5f5f5;fontColor=#333333;strokeColor=#666666;" vertex="1" parent="1">
          <mxGeometry x="136" y="270" width="200" height="180" as="geometry" />
        </mxCell>
        <mxCell id="0TzuPKPh_3oKhMu8tfwf-9" value="" style="shape=image;verticalLabelPosition=bottom;labelBackgroundColor=default;verticalAlign=top;aspect=fixed;imageAspect=0;editableCssRules=.*;image=data:image/svg+xml,PHN2ZyB4bWxucz0iaHR0cDovL3d3dy53My5vcmcvMjAwMC9zdmciIGZpbGw9Im5vbmUiIHZpZXdCb3g9IjAgMCAzNDQgMTI3IiBoZWlnaHQ9IjEyNyIgd2lkdGg9IjM0NCI+JiN4YTs8bWFzayBoZWlnaHQ9IjEyNyIgd2lkdGg9IjM0NCIgeT0iMCIgeD0iMCIgbWFza1VuaXRzPSJ1c2VyU3BhY2VPblVzZSIgc3R5bGU9Im1hc2stdHlwZTphbHBoYSIgaWQ9Im1hc2swXzk1OF8xNTg4MSI+JiN4YTs8cGF0aCBmaWxsPSJ3aGl0ZSIgZD0iTTIzNC4xMjMgNDEuMjIwNEMyMzUuNDg5IDQ0LjMzNTQgMjM2LjE3MiA0Ny42NjM4IDIzNi4xNzIgNTEuMjA1NUMyMzYuMTcyIDQ3LjY2MzggMjM2LjgzMyA0NC4zMzU0IDIzOC4xNTYgNDEuMjIwNEMyMzkuNTIxIDM4LjEwNTQgMjQxLjM1NiAzNS4zOTU4IDI0My42NiAzMy4wOTE2QzI0NS45NjUgMzAuNzg3MyAyNDguNjc0IDI4Ljk3MzggMjUxLjc4OSAyNy42NTFDMjU0LjkwNCAyNi4yODU1IDI1OC4yMzMgMjUuNjAyOCAyNjEuNzc0IDI1LjYwMjhDMjU4LjIzMyAyNS42MDI4IDI1NC45MDQgMjQuOTQxNCAyNTEuNzg5IDIzLjYxODVDMjQ4LjY3NCAyMi4yNTMxIDI0NS45NjUgMjAuNDE4MiAyNDMuNjYgMTguMTE0QzI0MS4zNTYgMTUuODA5NyAyMzkuNTIxIDEzLjEwMDEgMjM4LjE1NiA5Ljk4NTA3QzIzNi44MzMgNi44NzAwNyAyMzYuMTcyIDMuNTQxNzEgMjM2LjE3MiAwQzIzNi4xNzIgMy41NDE3MSAyMzUuNDg5IDYuODcwMDcgMjM0LjEyMyA5Ljk4NTA3QzIzMi44MDEgMTMuMTAwMSAyMzAuOTg3IDE1LjgwOTcgMjI4LjY4MyAxOC4xMTRDMjI2LjM3OSAyMC40MTgyIDIyMy42NjkgMjIuMjUzMSAyMjAuNTU0IDIzLjYxODVDMjE3LjQzOSAyNC45NDE0IDIxNC4xMTEgMjUuNjAyOCAyMTAuNTY5IDI1LjYwMjhDMjE0LjExMSAyNS42MDI4IDIxNy40MzkgMjYuMjg1NSAyMjAuNTU0IDI3LjY1MUMyMjMuNjY5IDI4Ljk3MzggMjI2LjM3OSAzMC43ODczIDIyOC42ODMgMzMuMDkxNkMyMzAuOTg3IDM1LjM5NTggMjMyLjgwMSAzOC4xMDU0IDIzNC4xMjMgNDEuMjIwNFpNMjYuMTUzMiAxMjMuMTRDMzEuMzc2MiAxMjUuMjkxIDM2Ljk0NDggMTI2LjM2NiA0Mi44NTkgMTI2LjM2NkM0OC44NTAxIDEyNi4zNjYgNTQuMzAzNSAxMjUuNDA2IDU5LjIxOTIgMTIzLjQ4NkM2NC4xMzQ5IDEyMS41NjYgNjguMzk3OCAxMTguODM5IDcyLjAwNzggMTE1LjMwNkM3NS42MTc4IDExMS43NzMgNzguNDIxMyAxMDcuNTg3IDgwLjQxODMgMTAyLjc0OEM4Mi40MTUzIDk3LjgzMjEgODMuNDEzOCA5Mi40NTU1IDgzLjQxMzggODYuNjE4MVY4Ni41MDI5QzgzLjQxMzggODUuNDI3NiA4My4zMzcgODQuNDI5IDgzLjE4MzQgODMuNTA3M0M4My4xMDY2IDgyLjU4NTYgODIuOTkxNCA4MS42MjU1IDgyLjgzNzcgODAuNjI3SDQzLjA4OTVWOTAuMTg5N0g3My4wNDQ3QzcyLjczNzQgOTQuNzk4MiA3MS42NjIxIDk4Ljc5MjIgNjkuODE4NyAxMDIuMTcyQzY4LjA1MjEgMTA1LjQ3NSA2NS43ODYzIDEwOC4yMDEgNjMuMDIxMiAxMTAuMzUyQzYwLjMzMjkgMTEyLjUwMiA1Ny4yMjIyIDExNC4xMTUgNTMuNjg5IDExNS4xOTFDNTAuMjMyNiAxMTYuMTg5IDQ2LjYyMjYgMTE2LjY4OSA0Mi44NTkgMTE2LjY4OUMzOC43MTE0IDExNi42ODkgMzQuNjc4OSAxMTUuOTIgMzAuNzYxNyAxMTQuMzg0QzI2Ljg0NDUgMTEyLjg0OCAyMy4zNDk3IDExMC42MjEgMjAuMjc3NCAxMDcuNzAyQzE3LjI4MTkgMTA0Ljc4MyAxNC45MDA4IDEwMS4yODggMTMuMTM0MiA5Ny4yMTc2QzExLjM2NzYgOTMuMDcgMTAuNDg0MyA4OC40MjMxIDEwLjQ4NDMgODMuMjc2OUMxMC40ODQzIDc4LjEzMDggMTEuMzI5MiA3My41MjIzIDEzLjAxOSA2OS40NTE0QzE0Ljc4NTYgNjUuMzAzOCAxNy4xNjY3IDYxLjgwOSAyMC4xNjIyIDU4Ljk2NzFDMjMuMTU3NyA1Ni4wNDg0IDI2LjYxNDEgNTMuODIwOSAzMC41MzEzIDUyLjI4NDhDMzQuNTI1MyA1MC43NDg2IDM4LjYzNDYgNDkuOTgwNSA0Mi44NTkgNDkuOTgwNUM0Ni4wMDgyIDQ5Ljk4MDUgNDkuMDAzNyA1MC40MDMgNTEuODQ1NiA1MS4yNDc5QzU0LjY4NzUgNTIuMDE1OSA1Ny4yOTkgNTMuMTI5NyA1OS42OCA1NC41ODlDNjIuMTM3OSA1Ni4wNDg0IDY0LjI1MDEgNTcuODE1IDY2LjAxNjcgNTkuODg4OEw3My4xNTk5IDUyLjUxNTJDNjkuNzAzNSA0OC41OTggNjUuMjg3IDQ1LjU2NCA1OS45MTA1IDQzLjQxMzRDNTQuNjEwNyA0MS4yNjI4IDQ4LjkyNjkgNDAuMTg3NSA0Mi44NTkgNDAuMTg3NUMzNy4wMjE2IDQwLjE4NzUgMzEuNDkxNCA0MS4yNjI4IDI2LjI2ODQgNDMuNDEzNEMyMS4xMjIzIDQ1LjU2NCAxNi41NTIyIDQ4LjU5OCAxMi41NTgyIDUyLjUxNTJDOC42NDA5MyA1Ni40MzI0IDUuNTY4NiA2MS4wMDI1IDMuMzQxMTYgNjYuMjI1NUMxLjExMzcyIDcxLjQ0ODQgMCA3Ny4xMzIzIDAgODMuMjc2OUMwIDg5LjQyMTYgMS4xMTM3MiA5NS4xMDU0IDMuMzQxMTYgMTAwLjMyOEM1LjU2ODYgMTA1LjU1MSA4LjY0MDkzIDExMC4xMjEgMTIuNTU4MiAxMTQuMDM5QzE2LjQ3NTQgMTE3Ljk1NiAyMS4wMDcxIDEyMC45OSAyNi4xNTMyIDEyMy4xNFpNMTA0LjA1OCAxMjIuMzM0QzEwOC41MTIgMTI1LjAyMiAxMTMuNTgyIDEyNi4zNjYgMTE5LjI2NiAxMjYuMzY2QzEyNS43MTcgMTI2LjM2NiAxMzEuMTMyIDEyNC45MDcgMTM1LjUxMSAxMjEuOTg4QzEzOS44ODkgMTE5LjA3IDE0My4yMyAxMTUuMzgzIDE0NS41MzQgMTEwLjkyOEwxMzYuNzc4IDEwNi43OEMxMzUuMTY1IDEwOS42OTkgMTMyLjkzNyAxMTIuMTU3IDEzMC4wOTYgMTE0LjE1NEMxMjcuMzMgMTE2LjE1MSAxMjMuODc0IDExNy4xNDkgMTE5LjcyNiAxMTcuMTQ5QzExNi41IDExNy4xNDkgMTEzLjM5IDExNi4zNDMgMTEwLjM5NCAxMTQuNzNDMTA3LjM5OSAxMTMuMTE3IDEwNC45NDEgMTEwLjY5NyAxMDMuMDIxIDEwNy40NzJDMTAxLjM2MiAxMDQuNjg0IDEwMC40MTkgMTAxLjI2NiAxMDAuMTk0IDk3LjIxNzZIMTQ2LjQ1NkMxNDYuNTMzIDk2LjgzMzYgMTQ2LjU3MSA5Ni4zMzQzIDE0Ni41NzEgOTUuNzE5OUMxNDYuNjQ4IDk1LjEwNTQgMTQ2LjY4NiA5NC41MjkzIDE0Ni42ODYgOTMuOTkxN0MxNDYuNjg2IDg4LjE1NDIgMTQ1LjUzNCA4Mi45Njk3IDE0My4yMyA3OC40MzhDMTQxLjAwMiA3My45MDYzIDEzNy43NzYgNzAuMzczMSAxMzMuNTUyIDY3LjgzODVDMTI5LjMyNyA2NS4yMjcgMTI0LjI5NyA2My45MjEyIDExOC40NTkgNjMuOTIxMkMxMTIuNjk4IDYzLjkyMTIgMTA3LjY2OCA2NS4zODA2IDEwMy4zNjYgNjguMjk5M0M5OS4wNjUgNzEuMTQxMiA5NS43MjM4IDc0Ljk0MzIgOTMuMzQyOCA3OS43MDUzQzkxLjAzODUgODQuNDY3NCA4OS44ODY0IDg5LjY1MiA4OS44ODY0IDk1LjI1OUM4OS44ODY0IDEwMS4yNSA5MS4xMTUzIDEwNi41ODggOTMuNTczMiAxMTEuMjc0Qzk2LjEwNzkgMTE1Ljk1OSA5OS42MDI3IDExOS42NDYgMTA0LjA1OCAxMjIuMzM0Wk0xMDAuNzgxIDg4LjgwNzFDMTAxLjE0MyA4Ny4wOTcxIDEwMS42NiA4NS40ODQxIDEwMi4zMjkgODMuOTY4MkMxMDMuNzg5IDgwLjY2NTQgMTA1LjkwMSA3OC4wNTQgMTA4LjY2NiA3Ni4xMzM4QzExMS41MDggNzQuMTM2NyAxMTQuODExIDczLjEzODIgMTE4LjU3NCA3My4xMzgyQzEyMS43MjMgNzMuMTM4MiAxMjQuMzczIDczLjY3NTkgMTI2LjUyNCA3NC43NTEyQzEyOC42NzUgNzUuNzQ5NyAxMzAuNDQxIDc3LjA1NTQgMTMxLjgyNCA3OC42Njg0QzEzMy4yMDYgODAuMjgxNCAxMzQuMjA1IDgyLjAwOTYgMTM0LjgxOSA4My44NTNDMTM1LjQzNCA4NS42MTk2IDEzNS43NzkgODcuMjcxIDEzNS44NTYgODguODA3MUgxMDAuNzgxWk0xNTUuNDk3IDY1Ljc2NDZWMTI0LjUyM0gxNjUuODY2VjkxLjgwMjZDMTY1Ljg2NiA4OC41NzY3IDE2Ni41MTkgODUuNTQyOCAxNjcuODI1IDgyLjcwMDlDMTY5LjEzMSA3OS44NTkgMTcwLjkzNiA3Ny41OTMxIDE3My4yNCA3NS45MDMzQzE3NS41NDQgNzQuMTM2NyAxNzguMTU2IDczLjI1MzQgMTgxLjA3NCA3My4yNTM0QzE4NS4xNDUgNzMuMjUzNCAxODguMjk0IDc0LjQ0NCAxOTAuNTIyIDc2LjgyNUMxOTIuODI2IDc5LjEyOTMgMTkzLjk3OCA4My4wODQ5IDE5My45NzggODguNjkxOVYxMjQuNTIzSDIwNC4yMzJWOTEuNTcyMkMyMDQuMjMyIDg4LjM0NjMgMjA0Ljg4NSA4NS4zNTA3IDIwNi4xOTEgODIuNTg1NkMyMDcuNDk2IDc5Ljc0MzcgMjA5LjMwMSA3Ny40Nzc5IDIxMS42MDYgNzUuNzg4MUMyMTMuOTEgNzQuMDk4MyAyMTYuNTIxIDczLjI1MzQgMjE5LjQ0IDczLjI1MzRDMjIzLjU4OCA3My4yNTM0IDIyNi43NzUgNzQuNDA1NiAyMjkuMDAzIDc2LjcwOThDMjMxLjMwNyA3OS4wMTQxIDIzMi40NTkgODIuOTY5NyAyMzIuNDU5IDg4LjU3NjdWMTI0LjUyM0gyNDIuNzEzVjg2Ljg0ODVDMjQyLjcxMyA4MC4wMTI2IDI0MS4wMjMgNzQuNDgyNCAyMzcuNjQ0IDcwLjI1NzlDMjM0LjM0MSA2Ni4wMzM1IDIyOS4xNTYgNjMuOTIxMiAyMjIuMDkgNjMuOTIxMkMyMTcuNDA1IDYzLjkyMTIgMjEzLjM3MiA2NC45OTY1IDIwOS45OTMgNjcuMTQ3MkMyMDYuNjEzIDY5LjI5NzggMjAzLjkyNSA3Mi4wMjQ1IDIwMS45MjggNzUuMzI3M0MyMDAuNTQ1IDcxLjk0NzcgMTk4LjI3OSA2OS4yMjEgMTk1LjEzIDY3LjE0NzJDMTkyLjA1OCA2NC45OTY1IDE4OC4zMzMgNjMuOTIxMiAxODMuOTU1IDYzLjkyMTJDMTgxLjQ5NyA2My45MjEyIDE3OS4wMzkgNjQuNDIwNSAxNzYuNTgxIDY1LjQxOUMxNzQuMiA2Ni4zNDA3IDE3Mi4wODggNjcuNjA4IDE3MC4yNDQgNjkuMjIxQzE2OC40MDEgNzAuNzU3MiAxNjYuOTQyIDcyLjQ4NTQgMTY1Ljg2NiA3NC40MDU2SDE2NS40MDVWNjUuNzY0NkgxNTUuNDk3Wk0yNTIuMDQ1IDY1Ljc2NDZWMTI0LjUyM0gyNjIuMjk5VjY1Ljc2NDZIMjUyLjA0NVpNMjUxLjkzIDUzLjMyMTdDMjUzLjM4OSA1NC43MDQyIDI1NS4xMTggNTUuMzk1NSAyNTcuMTE1IDU1LjM5NTVDMjU5LjE4OCA1NS4zOTU1IDI2MC45MTcgNTQuNzA0MiAyNjIuMjk5IDUzLjMyMTdDMjYzLjY4MiA1MS44NjIzIDI2NC4zNzMgNTAuMTM0MSAyNjQuMzczIDQ4LjEzNzFDMjY0LjM3MyA0Ni4wNjMzIDI2My42ODIgNDQuMzM1MSAyNjIuMjk5IDQyLjk1MjZDMjYwLjkxNyA0MS40OTMyIDI1OS4xODggNDAuNzYzNSAyNTcuMTE1IDQwLjc2MzVDMjU1LjExOCA0MC43NjM1IDI1My4zODkgNDEuNDkzMiAyNTEuOTMgNDIuOTUyNkMyNTAuNTQ3IDQ0LjMzNTEgMjQ5Ljg1NiA0Ni4wNjMzIDI0OS44NTYgNDguMTM3MUMyNDkuODU2IDUwLjEzNDEgMjUwLjU0NyA1MS44NjIzIDI1MS45MyA1My4zMjE3Wk0yNzEuOTI5IDY1Ljc2NDZWMTI0LjUyM0gyODIuMjk4VjkxLjgwMjZDMjgyLjI5OCA4OC42NTM1IDI4Mi45NTEgODUuNjk2NCAyODQuMjU3IDgyLjkzMTNDMjg1LjY0IDgwLjA4OTQgMjg3LjUyMSA3Ny43ODUxIDI4OS45MDIgNzYuMDE4NUMyOTIuMjgzIDc0LjE3NTEgMjk1LjA4NyA3My4yNTM0IDI5OC4zMTMgNzMuMjUzNEMzMDIuNjE0IDczLjI1MzQgMzA2LjA3MSA3NC40NDQgMzA4LjY4MiA3Ni44MjVDMzExLjI5MyA3OS4xMjkzIDMxMi41OTkgODMuMDg0OSAzMTIuNTk5IDg4LjY5MTlWMTI0LjUyM0gzMjIuOTY4Vjg2Ljg0ODVDMzIyLjk2OCA3OS45MzU4IDMyMS4xMjUgNzQuNDA1NiAzMTcuNDM4IDcwLjI1NzlDMzEzLjc1MSA2Ni4wMzM1IDMwOC4zMzYgNjMuOTIxMiAzMDEuMTkzIDYzLjkyMTJDMjk2Ljk2OSA2My45MjEyIDI5My4xMjggNjQuOTU4MSAyODkuNjcyIDY3LjAzMkMyODYuMjE2IDY5LjEwNTggMjgzLjcxOSA3MS41NjM3IDI4Mi4xODMgNzQuNDA1NkgyODEuNzIyVjY1Ljc2NDZIMjcxLjkyOVpNMzMxLjY3MiA2NS43NjQ2VjEyNC41MjNIMzQxLjkyNlY2NS43NjQ2SDMzMS42NzJaTTMzMS41NTcgNTMuMzIxN0MzMzMuMDE2IDU0LjcwNDIgMzM0Ljc0NSA1NS4zOTU1IDMzNi43NDIgNTUuMzk1NUMzMzguODE1IDU1LjM5NTUgMzQwLjU0NCA1NC43MDQyIDM0MS45MjYgNTMuMzIxN0MzNDMuMzA5IDUxLjg2MjMgMzQ0IDUwLjEzNDEgMzQ0IDQ4LjEzNzFDMzQ0IDQ2LjA2MzMgMzQzLjMwOSA0NC4zMzUxIDM0MS45MjYgNDIuOTUyNkMzNDAuNTQ0IDQxLjQ5MzIgMzM4LjgxNSA0MC43NjM1IDMzNi43NDIgNDAuNzYzNUMzMzQuNzQ1IDQwLjc2MzUgMzMzLjAxNiA0MS40OTMyIDMzMS41NTcgNDIuOTUyNkMzMzAuMTc1IDQ0LjMzNTEgMzI5LjQ4MyA0Ni4wNjMzIDMyOS40ODMgNDguMTM3MUMzMjkuNDgzIDUwLjEzNDEgMzMwLjE3NSA1MS44NjIzIDMzMS41NTcgNTMuMzIxN1oiIGNsaXAtcnVsZT0iZXZlbm9kZCIgZmlsbC1ydWxlPSJldmVub2RkIi8+JiN4YTs8L21hc2s+JiN4YTs8ZyBtYXNrPSJ1cmwoI21hc2swXzk1OF8xNTg4MSkiPiYjeGE7PHJlY3QgZmlsbD0idXJsKCNwYWludDBfbGluZWFyXzk1OF8xNTg4MSkiIGhlaWdodD0iNjg1LjMyNCIgd2lkdGg9IjgzMi4wOSIgeT0iLTQ1NS40NDMiIHg9Ii0xNTguMjUiLz4mI3hhOzwvZz4mI3hhOzxkZWZzPiYjeGE7PGxpbmVhckdyYWRpZW50IGdyYWRpZW50VW5pdHM9InVzZXJTcGFjZU9uVXNlIiB5Mj0iMzAuMzY5IiB4Mj0iMzU0Ljk3IiB5MT0iMTMwLjQ0MSIgeDE9Ii01Ny40MDQ5IiBpZD0icGFpbnQwX2xpbmVhcl85NThfMTU4ODEiPiYjeGE7PHN0b3Agc3RvcC1jb2xvcj0iIzQzOURERiIvPiYjeGE7PHN0b3Agc3RvcC1jb2xvcj0iIzRGODdFRCIgb2Zmc2V0PSIwLjUyNDIwOCIvPiYjeGE7PHN0b3Agc3RvcC1jb2xvcj0iIzk0NzZDNSIgb2Zmc2V0PSIwLjc4MTQ1MiIvPiYjeGE7PHN0b3Agc3RvcC1jb2xvcj0iI0JDNjg4RSIgb2Zmc2V0PSIwLjg4ODI1MiIvPiYjeGE7PHN0b3Agc3RvcC1jb2xvcj0iI0Q2NjQ1RCIgb2Zmc2V0PSIxIi8+JiN4YTs8L2xpbmVhckdyYWRpZW50PiYjeGE7PC9kZWZzPiYjeGE7PC9zdmc+;" vertex="1" parent="0TzuPKPh_3oKhMu8tfwf-12">
          <mxGeometry x="32.28" y="35" width="135.43" height="50" as="geometry" />
        </mxCell>
        <mxCell id="0TzuPKPh_3oKhMu8tfwf-10" value="" style="shape=image;verticalLabelPosition=bottom;labelBackgroundColor=default;verticalAlign=top;aspect=fixed;imageAspect=0;editableCssRules=.*;image=data:image/svg+xml,PHN2ZyB4bWxucz0iaHR0cDovL3d3dy53My5vcmcvMjAwMC9zdmciIHZpZXdCb3g9IjAgMCAxMTgwIDMyMCI+PHBhdGggZD0ibTM2Ny40NCAxNTMuODRjMCA1Mi4zMiAzMy42IDg4LjggODAuMTYgODguOHM4MC4xNi0zNi40OCA4MC4xNi04OC44LTMzLjYtODguOC04MC4xNi04OC44LTgwLjE2IDM2LjQ4LTgwLjE2IDg4Ljh6bTEyOS42IDBjMCAzNy40NC0yMC40IDYxLjY4LTQ5LjQ0IDYxLjY4cy00OS40NC0yNC4yNC00OS40NC02MS42OCAyMC40LTYxLjY4IDQ5LjQ0LTYxLjY4IDQ5LjQ0IDI0LjI0IDQ5LjQ0IDYxLjY4eiIvPjxwYXRoIGQ9Im02MTQuMjcgMjQyLjY0YzM1LjI4IDAgNTUuNDQtMjkuNzYgNTUuNDQtNjUuNTJzLTIwLjE2LTY1LjUyLTU1LjQ0LTY1LjUyYy0xNi4zMiAwLTI4LjMyIDYuNDgtMzYuMjQgMTUuODR2LTEzLjQ0aC0yOC44djE2OS4yaDI4Ljh2LTU2LjRjNy45MiA5LjM2IDE5LjkyIDE1Ljg0IDM2LjI0IDE1Ljg0em0tMzYuOTYtNjkuMTJjMC0yMy43NiAxMy40NC0zNi43MiAzMS4yLTM2LjcyIDIwLjg4IDAgMzIuMTYgMTYuMzIgMzIuMTYgNDAuMzJzLTExLjI4IDQwLjMyLTMyLjE2IDQwLjMyYy0xNy43NiAwLTMxLjItMTMuMi0zMS4yLTM2LjQ4eiIvPjxwYXRoIGQ9Im03NDcuNjUgMjQyLjY0YzI1LjIgMCA0NS4xMi0xMy4yIDU0LTM1LjI4bC0yNC43Mi05LjM2Yy0zLjg0IDEyLjk2LTE1LjEyIDIwLjE2LTI5LjI4IDIwLjE2LTE4LjQ4IDAtMzEuNDQtMTMuMi0zMy42LTM0LjhoODguMzJ2LTkuNmMwLTM0LjU2LTE5LjQ0LTYyLjE2LTU1LjkyLTYyLjE2cy02MCAyOC41Ni02MCA2NS41MmMwIDM4Ljg4IDI1LjIgNjUuNTIgNjEuMiA2NS41MnptLTEuNDQtMTA2LjhjMTguMjQgMCAyNi44OCAxMiAyNy4xMiAyNS45MmgtNTcuODRjNC4zMi0xNy4wNCAxNS44NC0yNS45MiAzMC43Mi0yNS45MnoiLz48cGF0aCBkPSJtODIzLjk4IDI0MGgyOC44di03My45MmMwLTE4IDEzLjItMjcuNiAyNi4xNi0yNy42IDE1Ljg0IDAgMjIuMDggMTEuMjggMjIuMDggMjYuODh2NzQuNjRoMjguOHYtODMuMDRjMC0yNy4xMi0xNS44NC00NS4zNi00Mi4yNC00NS4zNi0xNi4zMiAwLTI3LjYgNy40NC0zNC44IDE1Ljg0di0xMy40NGgtMjguOHoiLz48cGF0aCBkPSJtMTAxNC4xNyA2Ny42OC02NS4yOCAxNzIuMzJoMzAuNDhsMTQuNjQtMzkuMzZoNzQuNGwxNC44OCAzOS4zNmgzMC45NmwtNjUuMjgtMTcyLjMyem0xNi44IDM0LjA4IDI3LjM2IDcyaC01NC4yNHoiLz48cGF0aCBkPSJtMTE2My42OSA2OC4xOGgtMzAuNzJ2MTcyLjMyaDMwLjcyeiIvPjxwYXRoIGQ9Im0yOTcuMDYgMTMwLjk3YzcuMjYtMjEuNzkgNC43Ni00NS42Ni02Ljg1LTY1LjQ4LTE3LjQ2LTMwLjQtNTIuNTYtNDYuMDQtODYuODQtMzguNjgtMTUuMjUtMTcuMTgtMzcuMTYtMjYuOTUtNjAuMTMtMjYuODEtMzUuMDQtLjA4LTY2LjEzIDIyLjQ4LTc2LjkxIDU1LjgyLTIyLjUxIDQuNjEtNDEuOTQgMTguNy01My4zMSAzOC42Ny0xNy41OSAzMC4zMi0xMy41OCA2OC41NCA5LjkyIDk0LjU0LTcuMjYgMjEuNzktNC43NiA0NS42NiA2Ljg1IDY1LjQ4IDE3LjQ2IDMwLjQgNTIuNTYgNDYuMDQgODYuODQgMzguNjggMTUuMjQgMTcuMTggMzcuMTYgMjYuOTUgNjAuMTMgMjYuOCAzNS4wNi4wOSA2Ni4xNi0yMi40OSA3Ni45NC01NS44NiAyMi41MS00LjYxIDQxLjk0LTE4LjcgNTMuMzEtMzguNjcgMTcuNTctMzAuMzIgMTMuNTUtNjguNTEtOS45NC05NC41MXptLTEyMC4yOCAxNjguMTFjLTE0LjAzLjAyLTI3LjYyLTQuODktMzguMzktMTMuODguNDktLjI2IDEuMzQtLjczIDEuODktMS4wN2w2My43Mi0zNi44YzMuMjYtMS44NSA1LjI2LTUuMzIgNS4yNC05LjA3di04OS44M2wyNi45MyAxNS41NWMuMjkuMTQuNDguNDIuNTIuNzR2NzQuMzljLS4wNCAzMy4wOC0yNi44MyA1OS45LTU5LjkxIDU5Ljk3em0tMTI4Ljg0LTU1LjAzYy03LjAzLTEyLjE0LTkuNTYtMjYuMzctNy4xNS00MC4xOC40Ny4yOCAxLjMuNzkgMS44OSAxLjEzbDYzLjcyIDM2LjhjMy4yMyAxLjg5IDcuMjMgMS44OSAxMC40NyAwbDc3Ljc5LTQ0LjkydjMxLjFjLjAyLjMyLS4xMy42My0uMzguODNsLTY0LjQxIDM3LjE5Yy0yOC42OSAxNi41Mi02NS4zMyA2LjctODEuOTItMjEuOTV6bS0xNi43Ny0xMzkuMDljNy0xMi4xNiAxOC4wNS0yMS40NiAzMS4yMS0yNi4yOSAwIC41NS0uMDMgMS41Mi0uMDMgMi4ydjczLjYxYy0uMDIgMy43NCAxLjk4IDcuMjEgNS4yMyA5LjA2bDc3Ljc5IDQ0LjkxLTI2LjkzIDE1LjU1Yy0uMjcuMTgtLjYxLjIxLS45MS4wOGwtNjQuNDItMzcuMjJjLTI4LjYzLTE2LjU4LTM4LjQ1LTUzLjIxLTIxLjk1LTgxLjg5em0yMjEuMjYgNTEuNDktNzcuNzktNDQuOTIgMjYuOTMtMTUuNTRjLjI3LS4xOC42MS0uMjEuOTEtLjA4bDY0LjQyIDM3LjE5YzI4LjY4IDE2LjU3IDM4LjUxIDUzLjI2IDIxLjk0IDgxLjk0LTcuMDEgMTIuMTQtMTguMDUgMjEuNDQtMzEuMiAyNi4yOHYtNzUuODFjLjAzLTMuNzQtMS45Ni03LjItNS4yLTkuMDZ6bTI2LjgtNDAuMzRjLS40Ny0uMjktMS4zLS43OS0xLjg5LTEuMTNsLTYzLjcyLTM2LjhjLTMuMjMtMS44OS03LjIzLTEuODktMTAuNDcgMGwtNzcuNzkgNDQuOTJ2LTMxLjFjLS4wMi0uMzIuMTMtLjYzLjM4LS44M2w2NC40MS0zNy4xNmMyOC42OS0xNi41NSA2NS4zNy02LjcgODEuOTEgMjIgNi45OSAxMi4xMiA5LjUyIDI2LjMxIDcuMTUgNDAuMXptLTE2OC41MSA1NS40My0yNi45NC0xNS41NWMtLjI5LS4xNC0uNDgtLjQyLS41Mi0uNzR2LTc0LjM5Yy4wMi0zMy4xMiAyNi44OS01OS45NiA2MC4wMS01OS45NCAxNC4wMSAwIDI3LjU3IDQuOTIgMzguMzQgMTMuODgtLjQ5LjI2LTEuMzMuNzMtMS44OSAxLjA3bC02My43MiAzNi44Yy0zLjI2IDEuODUtNS4yNiA1LjMxLTUuMjQgOS4wNmwtLjA0IDg5Ljc5em0xNC42My0zMS41NCAzNC42NS0yMC4wMSAzNC42NSAyMHY0MC4wMWwtMzQuNjUgMjAtMzQuNjUtMjB6Ii8+PC9zdmc+;" vertex="1" parent="0TzuPKPh_3oKhMu8tfwf-12">
          <mxGeometry x="26.24000000000001" y="113" width="147.51" height="40" as="geometry" />
        </mxCell>
        <mxCell id="0TzuPKPh_3oKhMu8tfwf-24" value="" style="edgeStyle=orthogonalEdgeStyle;rounded=1;orthogonalLoop=1;jettySize=auto;html=1;curved=0;sketch=1;curveFitting=1;jiggle=2;" edge="1" parent="1" source="0TzuPKPh_3oKhMu8tfwf-16" target="0TzuPKPh_3oKhMu8tfwf-17">
          <mxGeometry relative="1" as="geometry">
            <mxPoint x="845" y="550" as="targetPoint" />
            <Array as="points">
              <mxPoint x="936" y="525" />
            </Array>
          </mxGeometry>
        </mxCell>
        <mxCell id="0TzuPKPh_3oKhMu8tfwf-16" value="Bait Targets" style="pointerEvents=1;shadow=0;dashed=0;html=1;strokeColor=none;fillColor=#505050;labelPosition=center;verticalLabelPosition=bottom;verticalAlign=top;outlineConnect=0;align=center;shape=mxgraph.office.users.dynamic_distribution_group;fontFamily=Comic Sans MS;" vertex="1" parent="1">
          <mxGeometry x="716" y="495" width="58" height="59" as="geometry" />
        </mxCell>
        <mxCell id="0TzuPKPh_3oKhMu8tfwf-25" value="" style="edgeStyle=orthogonalEdgeStyle;rounded=1;orthogonalLoop=1;jettySize=auto;html=1;entryX=1;entryY=0.5;entryDx=0;entryDy=0;curved=0;sketch=1;curveFitting=1;jiggle=2;" edge="1" parent="1" source="0TzuPKPh_3oKhMu8tfwf-17" target="0TzuPKPh_3oKhMu8tfwf-4">
          <mxGeometry relative="1" as="geometry" />
        </mxCell>
        <mxCell id="0TzuPKPh_3oKhMu8tfwf-17" value="Email Opened" style="sketch=0;pointerEvents=1;shadow=0;dashed=0;html=1;strokeColor=none;fillColor=#505050;labelPosition=right;verticalLabelPosition=middle;verticalAlign=middle;outlineConnect=0;align=left;shape=mxgraph.office.users.distribution_group;spacing=7;fontFamily=Comic Sans MS;" vertex="1" parent="1">
          <mxGeometry x="900" y="426" width="58" height="59" as="geometry" />
        </mxCell>
        <mxCell id="0TzuPKPh_3oKhMu8tfwf-21" style="edgeStyle=orthogonalEdgeStyle;rounded=1;orthogonalLoop=1;jettySize=auto;html=1;exitX=0;exitY=0.5;exitDx=0;exitDy=0;entryX=1;entryY=0.5;entryDx=0;entryDy=0;sketch=1;curveFitting=1;jiggle=2;curved=0;" edge="1" parent="1" source="0TzuPKPh_3oKhMu8tfwf-18" target="0TzuPKPh_3oKhMu8tfwf-4">
          <mxGeometry relative="1" as="geometry" />
        </mxCell>
        <mxCell id="0TzuPKPh_3oKhMu8tfwf-18" value="Red Team" style="shape=image;html=1;verticalAlign=middle;verticalLabelPosition=middle;labelBackgroundColor=#ffffff;imageAspect=0;aspect=fixed;image=https://cdn2.iconfinder.com/data/icons/woothemes/PNG/intruder.png;labelPosition=right;align=left;fontFamily=Comic Sans MS;" vertex="1" parent="1">
          <mxGeometry x="894" y="235" width="70" height="70" as="geometry" />
        </mxCell>
        <mxCell id="0TzuPKPh_3oKhMu8tfwf-22" value="" style="edgeStyle=orthogonalEdgeStyle;rounded=1;orthogonalLoop=1;jettySize=auto;html=1;curved=0;sketch=1;curveFitting=1;jiggle=2;flowAnimation=0;" edge="1" parent="1" source="0TzuPKPh_3oKhMu8tfwf-20" target="0TzuPKPh_3oKhMu8tfwf-4">
          <mxGeometry relative="1" as="geometry" />
        </mxCell>
        <mxCell id="0TzuPKPh_3oKhMu8tfwf-20" value="IT Admin" style="sketch=0;pointerEvents=1;shadow=0;dashed=0;html=1;strokeColor=none;fillColor=#505050;labelPosition=right;verticalLabelPosition=middle;verticalAlign=middle;outlineConnect=0;align=left;shape=mxgraph.office.users.tenant_admin;spacing=10;fontFamily=Comic Sans MS;" vertex="1" parent="1">
          <mxGeometry x="908" y="331" width="56" height="58" as="geometry" />
        </mxCell>
      </root>
    </mxGraphModel>
  </diagram>
</mxfile>
